<?xml version="1.0" encoding="UTF-8" standalone="no"?>
<!DOCTYPE svg PUBLIC "-//W3C//DTD SVG 1.1//EN" "http://www.w3.org/Graphics/SVG/1.1/DTD/svg11.dtd">
<svg version="1.1" xmlns="http://www.w3.org/2000/svg" xmlns:xlink="http://www.w3.org/1999/xlink" preserveAspectRatio="xMidYMid meet" viewBox="0 0 640 640" width="640" height="640"><defs><path d="" id="c4DgCqnpjW"></path><path d="M398.82 235.83C398.82 235.83 396.02 229.06 398.34 226.95C411.58 220.52 424.67 219.95 424.67 219.95C471.01 102.31 503.25 120.45 576.14 137.46C579.98 138.36 605.99 124.04 609.98 124.83C609.19 130.03 600.37 162.85 599.31 167.62C579.22 258.15 511.04 271.5 426.1 223.28C408.38 225.39 404.28 233.32 398.82 235.83Z" id="kpgp5Y8Ee"></path><radialGradient id="gradientdzmwWKaW" gradientUnits="userSpaceOnUse" cx="433.39" cy="148.44" r="151.75"><stop style="stop-color: #7fff00;stop-opacity: 1" offset="0%"></stop><stop style="stop-color: #7ca512;stop-opacity: 1" offset="100%"></stop></radialGradient><path d="M585.83 147.71C583.92 148.84 582.05 149.93 580.22 150.99C555.96 165.1 539.29 173.21 534.27 173.78C530.83 176.48 523.22 182.1 519.95 181.48C516.73 180.87 517.81 174.09 517.96 169.94C518.04 167.78 516.58 164.9 518.37 161.72C519.45 160.71 518.29 157.61 518.54 154.32C518.87 149.97 522.84 146.45 522.85 143.83C522.89 136.65 521.78 138.08 516.81 147.32C515.15 150.22 514.69 154.48 514.41 158.01C513.66 167.54 518.73 176.43 513.94 183.65C506.23 189.44 494.35 196.44 484.81 199.46C483.32 199.94 480.15 200.17 478.73 200.5C475.04 189.05 481.01 170.57 485.26 159.6C483.03 155.04 488.09 151.83 486.72 153.12C483.26 156.35 475.4 175.5 475.41 181.69C475.92 189.21 476.17 196.67 472.76 201.9C468.6 208.3 459.98 211.67 452.25 211.64C449.12 211.51 442.61 214.87 439.61 215.14C438.55 215.24 437.13 216 437.08 216.05C433.9 219.54 427.4 217.89 433.35 219.13C435.32 218.89 442.88 219.8 444.78 219.1C450.39 217.04 465.22 209.57 471.67 209.68C475.54 209.75 471.04 208.69 474.69 209.98C481.99 214.49 491.56 233.63 499.11 235.11C500.99 235.48 503.61 237.65 505.04 234.82C504.16 231.73 497.28 230.69 494.09 228.05C489.21 224 487.48 218.48 486.15 214.01C485.59 212.1 475.61 208.7 477.43 206.32C479.59 206.21 488.61 202.21 490.64 200.56C491.79 199.62 494.79 200.69 495.68 199.51C496.49 198.44 497.3 197.39 498.3 196.59C501.59 193.94 505.71 192.5 509.06 190.67C512.35 188.87 515.61 185.71 519.46 188.91C521.19 190.15 521.51 192.43 523.47 195.31C527.55 201.32 532.92 207.68 537.38 211.11C540.3 213.34 542.61 215.3 544.67 211.73C544.2 209.43 541.54 209.54 539.35 208.42C538.09 207.78 537.59 205.99 536.21 205.01C529.46 200.28 520.33 192.51 523.93 184.63C525.51 184.01 528.45 181.8 530.06 180.56C532.75 178.51 535.96 177.44 538.1 176.79C541.81 175.66 544.6 173.42 547.79 172.86C549.79 172.51 551.94 169.66 554.17 169.33C555.34 169.16 557.46 167.89 558.71 166.79C558.98 164.81 596.06 141.66 585.83 147.71Z" id="bdXxs3F4A"></path><path d="M380.7 221.17C380.7 221.17 387.37 214.46 385.59 210.85C372.75 196.91 357.26 190 357.26 190C358.51 27.35 292.6 37.33 195.76 22.42C191.2 21.72 184.12 17.83 179.45 16.97C179.45 16.97 172.97 6.05 172.97 6.05C171.71 11.28 167.23 42.18 166.31 47.17C146.89 153.18 209.28 199.28 311.95 196.71C325.29 196.37 339.31 195.22 353.92 193.27C374.24 204.22 375.34 215.59 380.7 221.17Z" id="jsox07FtP"></path><radialGradient id="gradientg5uJTnwpUT" gradientUnits="userSpaceOnUse" cx="381.79" cy="109.42" r="268.38"><stop style="stop-color: #7fff00;stop-opacity: 1" offset="0%"></stop><stop style="stop-color: #7ca512;stop-opacity: 1" offset="66.86345735083165%"></stop><stop style="stop-color: #000000;stop-opacity: 1" offset="100%"></stop></radialGradient><path d="M205.15 63.46C210.39 67.05 216.52 70.83 222.07 75.26C225.92 78.34 235.33 91.42 239.32 93.5C239.73 94.2 240.17 94.83 240.62 95.4C242.18 97.39 244.7 98.76 248.19 99.51C259.68 94.25 264.78 86.53 263.5 76.36C261.85 72.96 266.14 69.13 266.89 64.13C268.49 53.51 269.41 43.04 271.02 58.33C273.19 74.47 259.58 91.79 262.76 107.12C270.83 119.83 279.29 133.83 291.83 142.25C302.04 131.45 308.99 108.28 310.32 92.89C310.45 91.37 309.48 91.72 309.52 90.33C319.9 82.13 316.11 88.63 312.88 98.21C310.14 106.38 308.77 116.85 306.55 121.65C302.73 128.59 297.11 138.76 297.37 145.39C297.83 157.43 308.64 164.79 320.63 169.47C330.03 172.79 367.01 190 345.07 185.87C341.17 183.78 337.48 186.96 335.72 182.39C334.75 179.88 320.59 177.49 319.1 175.06C315.29 168.87 304.56 162.85 298.88 160.34C296.26 159.18 290.84 165.32 287.61 165.12C277.07 166.53 259.55 173.21 248.38 173.3C243.48 173.33 238.57 176.2 238.09 169.88C240.65 166.97 241.82 170.66 248.59 170.03C256.25 169.31 265.33 166.68 273.69 164.72C284.34 162.23 296.3 160.9 294.17 153.4C292.89 152.82 293.63 150.05 291.48 147.77C289.16 145.29 283.97 143.27 283.52 141.72C282.61 138.56 273.72 133.99 272.35 130.3C268.97 121.14 260.43 109.14 252.69 105.96C249.9 104.81 248.15 108.42 244.37 109.43C242.6 109.79 236.58 118.01 234.4 119.15C220.42 126.44 200.72 146.94 198.59 131.76C199.24 130.9 201.44 131.05 205.19 132.19L212.91 128.05C229.85 118.5 238.18 109.58 237.9 101.28C227.49 91.94 225.98 84.87 216.31 74.9C214.49 73.02 209.11 69.43 200.17 64.14C200.06 64.06 199.98 64 199.93 63.96C197.84 62.43 196.19 60.93 195.47 59.56C195.79 58.46 184.24 49.98 185.07 49.05C186.16 47.84 197.26 56.97 198.79 56.75C201.99 58.02 202.42 61.6 205.15 63.46Z" id="a5l7KkKhE"></path><path d="M380.63 238.98L373.69 262.71L366.84 288.21L361.67 308.18L358.78 333.93L361.67 361.19L358.78 383.17L373.69 385.5L373.69 367.95L370.29 339.21L373.69 318.11L380.63 284.7L385.89 262.71L400.46 236.79L397.42 227.54L389.25 238.98L389.25 209.08L380.63 221.41L380.63 238.98Z" id="b5h17UjDI"></path><radialGradient id="gradientaeTjWdw6o" gradientUnits="userSpaceOnUse" cx="379.62" cy="209.08" r="244.56"><stop style="stop-color: #7ca512;stop-opacity: 1" offset="0%"></stop><stop style="stop-color: #000100;stop-opacity: 1" offset="100%"></stop></radialGradient></defs><g><g><g><g><use xlink:href="#c4DgCqnpjW" opacity="1" fill-opacity="0" stroke="#000000" stroke-width="1" stroke-opacity="1"></use></g></g><g><use xlink:href="#kpgp5Y8Ee" opacity="1" fill="url(#gradientdzmwWKaW)"></use><g><use xlink:href="#kpgp5Y8Ee" opacity="1" fill-opacity="0" stroke="#4c5a17" stroke-width="3" stroke-opacity="1"></use></g></g><g><use xlink:href="#bdXxs3F4A" opacity="1" fill="#120505" fill-opacity="1"></use><g><use xlink:href="#bdXxs3F4A" opacity="1" fill-opacity="0" stroke="#000000" stroke-width="10" stroke-opacity="0"></use></g></g><g><use xlink:href="#jsox07FtP" opacity="1" fill="url(#gradientg5uJTnwpUT)"></use><g><use xlink:href="#jsox07FtP" opacity="1" fill-opacity="0" stroke="#4c5a17" stroke-width="3" stroke-opacity="1"></use></g></g><g><use xlink:href="#a5l7KkKhE" opacity="1" fill="#140404" fill-opacity="1"></use><g><use xlink:href="#a5l7KkKhE" opacity="1" fill-opacity="0" stroke="#000000" stroke-width="10" stroke-opacity="0"></use></g></g><g><use xlink:href="#b5h17UjDI" opacity="1" fill="url(#gradientaeTjWdw6o)"></use><g><use xlink:href="#b5h17UjDI" opacity="1" fill-opacity="0" stroke="#000000" stroke-width="1" stroke-opacity="1"></use></g></g></g></g></svg>